<svg xmlns="http://www.w3.org/2000/svg" width="32" height="30"><path fill="#EFC75E" d="M7.979 0a7 7 0 1 1-.001 14.001A7 7 0 0 1 7.979 0z"/><path fill="#E4E7E7" d="M26.872 8.149C26.234 4.652 23.182 2 19.5 2a7.495 7.495 0 0 0-6.215 3.3A2.975 2.975 0 0 0 12 5a3 3 0 0 0-3 3l.002.026A5.568 5.568 0 0 0 8.5 8a5.502 5.502 0 0 0-5.472 6.049A3.488 3.488 0 0 0 0 17.501a3.5 3.5 0 0 0 3.5 3.5h22a6.5 6.5 0 0 0 1.372-12.852z"/><path fill="#3CAFD6" d="M21 13.001c-.736 0-1 .369-1 1 0 .632.264 1 1 1 1.104 0 2 1.055 2 2s-.896 2-2 2H7v2h14c2.574 0 4-1.795 4-4s-1.426-4-4-4zM17 22H7v2h10c1.104 0 2 1.055 2 2s-.896 2-2 2c-.736 0-1 .369-1 1s.264 1 1 1c2.574 0 4-1.793 4-4 0-2.206-1.426-4-4-4z"/></svg>