<svg xmlns="http://www.w3.org/2000/svg" width="32" height="27.999"><path fill="#E4E7E7" d="M26.872 6.148C26.234 2.651 23.182 0 19.5 0a7.495 7.495 0 0 0-6.215 3.3A2.96 2.96 0 0 0 12 3a3 3 0 0 0-3 3l.002.025a5.5 5.5 0 0 0-5.974 6.023A3.488 3.488 0 0 0 0 15.5 3.5 3.5 0 0 0 3.5 19h22a6.5 6.5 0 0 0 1.372-12.852z"/><path fill="#3CAFD6" d="M21 11c-.736 0-1 .369-1 1 0 .632.264 1 1 1 1.104 0 2 1.055 2 2s-.896 2-2 2H7v2h14c2.574 0 4-1.795 4-4s-1.426-4-4-4zm-4 8.999H7v2h10c1.104 0 2 1.056 2 2 0 .945-.896 2-2 2-.736 0-1 .369-1 1 0 .632.264 1 1 1 2.574 0 4-1.793 4-4 0-2.206-1.426-4-4-4z"/></svg>