<svg xmlns="http://www.w3.org/2000/svg" viewBox="0 0 32 27"><path fill="#efc75e" d="M7 0c3.9 0 7 3.1 7 7s-3.1 7-7 7-7-3.1-7-7 3.1-7 7-7z"/><path fill="#e4e7e7" d="M26.9 8.1C26.2 4.7 23.2 2 19.5 2c-2.6 0-4.9 1.3-6.2 3.3-.4-.2-.8-.3-1.3-.3-1.7 0-3 1.3-3 3h-.5C5.5 8 3 10.5 3 13.5v.5c-1.7.2-3 1.7-3 3.5C0 19.4 1.6 21 3.5 21h22c3.6 0 6.5-2.9 6.5-6.5 0-3.1-2.2-5.7-5.1-6.4z"/><path fill="#3caed6" d="M11 19h3.7l-2.4-2.4c-.4-.4-.4-1 0-1.4s1-.4 1.4 0l2.4 2.4V14c0-.6.4-1 1-1s1 .4 1 1v3.6l2.4-2.4c.4-.4 1-.4 1.4 0s.4 1 0 1.4L19.4 19H23c.6 0 1 .4 1 1s-.4 1-1 1h-3.6l2.4 2.4c.4.4.4 1 0 1.4-.4.4-1 .4-1.4 0L18 22.3V26c0 .6-.4 1-1 1s-1-.4-1-1v-3.6l-2.4 2.4c-.4.4-1 .4-1.4 0-.4-.4-.4-1 0-1.4l2.4-2.4H11c-.6 0-1-.4-1-1s.4-1 1-1zm6 2c.6 0 1-.4 1-1s-.4-1-1-1-1 .4-1 1 .4 1 1 1z"/></svg>