<svg xmlns="http://www.w3.org/2000/svg" width="32" height="26"><path fill="#425864" d="M10.757 10.066c-3.217 0-5.824-2.549-5.824-5.693 0-1.758.816-3.328 2.097-4.373C3.136.072 0 3.174 0 6.996 0 10.863 3.209 14 7.169 14c3.209 0 5.925-2.061 6.839-4.902a5.898 5.898 0 0 1-3.251.968z"/><path fill="#E4E7E7" d="M26.872 7.148C26.234 3.652 23.182 1 19.5 1a7.495 7.495 0 0 0-6.215 3.3c-.39-.187-.822-.3-1.285-.3a3 3 0 0 0-3 3l.002.025L8.5 7a5.5 5.5 0 0 0-5.473 6.048A3.488 3.488 0 0 0 0 16.5 3.5 3.5 0 0 0 3.5 20h22a6.5 6.5 0 0 0 1.372-12.852z"/><path fill="#EFC75E" d="m22 16.042-4.957-.021L20.02 10h-7.001L9 19.986h5.091L11.991 26 22 16.042z"/></svg>