<svg xmlns="http://www.w3.org/2000/svg" viewBox="0 0 32 25" style="enable-background:new 0 0 32 25" xml:space="preserve"><path d="M16.5 21c-.8 0-1.5.7-1.5 1.5v1c0 .8.7 1.5 1.5 1.5s1.5-.7 1.5-1.5v-1c0-.8-.7-1.5-1.5-1.5zm6 0c-.8 0-1.5.7-1.5 1.5v1c0 .8.7 1.5 1.5 1.5s1.5-.7 1.5-1.5v-1c0-.8-.7-1.5-1.5-1.5zm-12 0c-.8 0-1.5.7-1.5 1.5v1c0 .8.7 1.5 1.5 1.5s1.5-.7 1.5-1.5v-1c0-.8-.7-1.5-1.5-1.5z" style="fill:#26a6d1"/><path d="M26.9 6.1C26.2 2.7 23.2 0 19.5 0c-2.6 0-4.9 1.3-6.2 3.3-.4-.2-.8-.3-1.3-.3-1.7 0-3 1.3-3 3h-.5C5.5 6 3 8.5 3 11.5v.5c-1.7.2-3 1.7-3 3.5C0 17.4 1.6 19 3.5 19h22c3.6 0 6.5-2.9 6.5-6.5 0-3.1-2.2-5.7-5.1-6.4z" style="fill:#e4e7e7"/></svg>