<svg xmlns="http://www.w3.org/2000/svg" width="32" height="25"><path fill="#E4E7E7" d="M26.872 6.148C26.234 2.652 23.182 0 19.5 0a7.492 7.492 0 0 0-6.215 3.3c-.39-.186-.822-.3-1.285-.3a3 3 0 0 0-3 3l.002.025L8.5 6a5.5 5.5 0 0 0-5.473 6.049A3.488 3.488 0 0 0 0 15.5 3.5 3.5 0 0 0 3.5 19h22a6.5 6.5 0 0 0 1.372-12.852z"/><path fill="#3CAED6" d="M11 17h3.679l-2.392-2.391a.957.957 0 0 1 1.351-1.352L16 15.619V12a1 1 0 1 1 2 0v3.65l2.393-2.393a.957.957 0 0 1 1.352 1.352L19.352 17H23a1 1 0 0 1 0 2h-3.619l2.362 2.363a.957.957 0 0 1-1.351 1.352L18 20.32V24a1 1 0 1 1-2 0v-3.647l-2.362 2.362a.957.957 0 0 1-1.351-1.352L14.649 19H11a1 1 0 1 1 0-2zm6 2a1 1 0 1 0 .002-1.998A1 1 0 0 0 17 19z"/></svg>