<svg xmlns="http://www.w3.org/2000/svg" viewBox="0 0 32 27" style="enable-background:new 0 0 32 27" xml:space="preserve"><path d="M10.8 10.1C7.6 10.1 5 7.6 5 4.4 4.9 2.6 5.7 1 7 0 3.1.1 0 3.2 0 7c0 3.9 3.2 7 7.2 7 3.2 0 5.9-2.1 6.8-4.9-.9.6-2 1-3.2 1z" style="fill:#425864"/><path d="M16.5 23c-.8 0-1.5.7-1.5 1.5v1c0 .8.7 1.5 1.5 1.5s1.5-.7 1.5-1.5v-1c0-.8-.7-1.5-1.5-1.5zm6 0c-.8 0-1.5.7-1.5 1.5v1c0 .8.7 1.5 1.5 1.5s1.5-.7 1.5-1.5v-1c0-.8-.7-1.5-1.5-1.5zm-12 0c-.8 0-1.5.7-1.5 1.5v1c0 .8.7 1.5 1.5 1.5s1.5-.7 1.5-1.5v-1c0-.8-.7-1.5-1.5-1.5z" style="fill:#26a6d1"/><path d="M26.9 8.1C26.2 4.7 23.2 2 19.5 2c-2.6 0-4.9 1.3-6.2 3.3-.4-.2-.8-.3-1.3-.3-1.7 0-3 1.3-3 3h-.5C5.5 8 3 10.5 3 13.5v.5c-1.7.2-3 1.7-3 3.5C0 19.4 1.6 21 3.5 21h22c3.6 0 6.5-2.9 6.5-6.5 0-3.1-2.2-5.7-5.1-6.4z" style="fill:#e4e7e7"/></svg>