<svg xmlns="http://www.w3.org/2000/svg" viewBox="0 0 32 30" style="enable-background:new 0 0 32 30" xml:space="preserve"><path d="M11.7 10.1c-3.2 0-5.8-2.5-5.8-5.7C5.9 2.6 6.7 1 8 0 4.1.1 1 3.2 1 7c0 3.9 3.2 7 7.2 7 3.2 0 5.9-2.1 6.8-4.9-.9.6-2.1 1-3.3 1z" style="fill:#425864"/><path d="M26.9 8.1C26.2 4.7 23.2 2 19.5 2c-2.6 0-4.9 1.3-6.2 3.3-.4-.2-.8-.3-1.3-.3-1.7 0-3 1.3-3 3h-.5C5.5 8 3 10.5 3 13.5v.5c-1.7.2-3 1.7-3 3.5C0 19.4 1.6 21 3.5 21h22c3.6 0 6.5-2.9 6.5-6.5 0-3.1-2.2-5.7-5.1-6.4z" style="fill:#e4e7e7"/><path d="M21 13c-.7 0-1 .4-1 1s.3 1 1 1c1.1 0 2 1.1 2 2s-.9 2-2 2H7v2h14c2.6 0 4-1.8 4-4s-1.4-4-4-4zm-4 9H7v2h10c1.1 0 2 1.1 2 2s-.9 2-2 2c-.7 0-1 .4-1 1s.3 1 1 1c2.6 0 4-1.8 4-4s-1.4-4-4-4z" style="fill:#3cafd6"/></svg>