<svg xmlns="http://www.w3.org/2000/svg" width="32" height="21"><path fill="#425864" d="M11.757 10.067c-3.217 0-5.824-2.549-5.824-5.693 0-1.759.816-3.33 2.097-4.374C4.136.073 1 3.174 1 6.997 1 10.864 4.209 14 8.169 14c3.209 0 5.925-2.061 6.839-4.902a5.899 5.899 0 0 1-3.251.969z"/><path fill="#E4E7E7" d="M26.872 8.148C26.234 4.652 23.182 2 19.5 2a7.495 7.495 0 0 0-6.215 3.3A2.96 2.96 0 0 0 12 5a3 3 0 0 0-3 3l.002.025L8.5 8a5.5 5.5 0 0 0-5.472 6.048A3.488 3.488 0 0 0 0 17.5 3.5 3.5 0 0 0 3.5 21h22a6.5 6.5 0 0 0 1.372-12.852z"/></svg>