<svg xmlns="http://www.w3.org/2000/svg" width="30.025" height="32"><path fill="#3F95D4" d="m29.536 24.141-2.826-1.815L28.007 22a1 1 0 1 0 0-2l-3.539.886-4.805-3.085A4.972 4.972 0 0 0 20.01 16c0-.643-.133-1.253-.354-1.817l4.785-3.073 3.566.89a1 1 0 1 0 0-2l-1.32-.33 2.826-1.815a1 1 0 0 0 .359-1.357.972.972 0 0 0-1.338-.364l-3.051 1.958L26.007 6a.998.998 0 1 0-1.998 0l-.895 3.579-.031.054-4.494 2.884a4.982 4.982 0 0 0-2.578-1.417V6.47l2.703-2.704a1.04 1.04 0 0 0-1.469-1.47L16.01 3.53V1a1 1 0 0 0-2 0v2.509l-1.213-1.215a1.031 1.031 0 1 0-1.459 1.461l2.674 2.673V11.1a4.982 4.982 0 0 0-2.578 1.417L6.941 9.633l-.03-.054L6.016 6a1 1 0 0 0-2 0l.522 2.09L1.49 6.133c-.468-.274-1.068-.112-1.338.364S.042 7.58.51 7.854L3.338 9.67 2.017 10a1 1 0 0 0 0 2l3.562-.891 4.787 3.073a4.949 4.949 0 0 0-.354 1.817c0 .637.131 1.24.348 1.801l-4.804 3.085L2.017 20a1 1 0 0 0 0 2l1.298.324L.49 24.141a.998.998 0 0 0-.358 1.355c.27.477.87.639 1.338.363l3.076-1.975L4.016 26a1 1 0 1 0 2 0l.9-3.602.03-.056 4.477-2.875a4.971 4.971 0 0 0 2.589 1.431v4.67l-2.705 2.688a1.025 1.025 0 0 0 0 1.451c.403.4 1.058.4 1.459 0l1.246-1.238V31a1 1 0 1 0 2 0v-2.49l1.201 1.196c.406.403 1.064.403 1.471 0s.404-1.058 0-1.46l-2.672-2.656V20.9a4.99 4.99 0 0 0 2.59-1.432l4.477 2.875.029.057.9 3.6a1 1 0 1 0 1.998 0l-.527-2.115 3.076 1.977a.973.973 0 0 0 1.338-.364.998.998 0 0 0-.357-1.357zM15.012 19a3 3 0 1 1 .002-6 3 3 0 0 1-.002 6z"/></svg>