<svg xmlns="http://www.w3.org/2000/svg" width="21" height="32" viewBox="0 0.013 21 32"><path fill="#E4E7E7" d="M13 17.774V5.013a5 5 0 1 0-10 0v12.761a7.98 7.98 0 0 0-3 6.239 8 8 0 0 0 16 0 7.982 7.982 0 0 0-3-6.239zm3-10.761h4a1 1 0 1 0 0-2h-4a1 1 0 1 0 0 2zm4 2h-4a1 1 0 1 0 0 2h4a1 1 0 1 0 0-2zm0 4h-4a1 1 0 1 0 0 2h4a1 1 0 1 0 0-2z"/><path fill="#CB4E44" d="M11 18.823V5.013a3 3 0 0 0-6 0v13.81a5.994 5.994 0 0 0-3 5.19 6 6 0 0 0 12 0 5.992 5.992 0 0 0-3-5.19z"/><path fill="#fff" d="M11 18.823V5.013a3 3 0 0 0-6 0v13.81a5.994 5.994 0 0 0-3 5.19 6 6 0 0 0 12 0 5.992 5.992 0 0 0-3-5.19zm-3 9.69a4.505 4.505 0 0 1-4.5-4.5c0-1.596.863-3.088 2.252-3.893l.748-.433V5.013c0-.827.673-1.5 1.5-1.5s1.5.673 1.5 1.5v14.674l.748.434a4.517 4.517 0 0 1 2.252 3.893A4.505 4.505 0 0 1 8 28.513z"/></svg>