<svg xmlns="http://www.w3.org/2000/svg" width="31.018" height="32"><path fill="#475F6C" d="M23.821 23.011c-7.125 0-12.898-5.825-12.898-13.014A13.03 13.03 0 0 1 15.568 0C6.944.168 0 7.257 0 15.993 0 24.832 7.108 32 15.873 32c7.108 0 13.122-4.711 15.143-11.203a12.76 12.76 0 0 1-7.195 2.214z"/><path fill="#425864" d="m15.567 0-.062.004-.235.273.297-.277zm1.307 31C8.108 31 1 23.832 1 14.993 1 10.812 2.603 7.02 5.205 4.172A15.988 15.988 0 0 0 0 15.993C0 24.832 7.108 32 15.873 32c4.6 0 8.735-1.98 11.633-5.135C24.692 29.432 20.968 31 16.874 31z"/></svg>