<svg xmlns="http://www.w3.org/2000/svg" width="432.533" height="820.65" viewBox="0 0 432.533 820.65">
  <g id="Group_352" data-name="Group 352" transform="translate(-17.242 -4)">
    <rect id="Rectangle_577" data-name="Rectangle 577" width="432.527" height="200.869" transform="translate(17.249 393.267)"/>
    <path id="Path_457" data-name="Path 457" d="M132.925,61.621H333.938v121.84h29.324V33.031A29,29,0,0,0,334.232,4H132.777a29,29,0,0,0-29.03,29.031V183.462H133.07ZM405.781,212.785H61.228a44.02,44.02,0,0,0-43.986,43.986V363.949H449.767V256.771a44.02,44.02,0,0,0-43.985-43.985ZM17.243,730.642a44.02,44.02,0,0,0,43.986,43.986H405.781a44.02,44.02,0,0,0,43.985-43.985V623.464H17.243ZM155.5,803.951l-74.336,0a43.718,43.718,0,0,0,74.336,0Zm230.338,0-74.336,0a43.718,43.718,0,0,0,74.336,0Z" transform="translate(0 0)"/>
  </g>
</svg>
