<svg xmlns="http://www.w3.org/2000/svg" width="567.998" height="491.475" viewBox="0 0 567.998 491.475">
  <path id="Path_457" data-name="Path 457" d="M555.238,300.744A22.774,22.774,0,0,1,524.813,290.3l-51.139-99.243V471.14a24.638,24.638,0,1,1-49.275,0V327.485H413.367V470.962a24.642,24.642,0,1,1-49.284,0v-279.9l-29.43,56.846L361.82,377.053H324.393v93.909a24.647,24.647,0,1,1-49.293,0V377.053H264.068V471.14a24.644,24.644,0,1,1-49.289,0l0-94.086H176.389l5.76-27.922c-.772-.95-37.959-72.8-37.959-72.8l25.525,119.186H144.19v82.531a17.409,17.409,0,1,1-34.818,0V395.514h-7.917v82.531a17.409,17.409,0,1,1-34.818,0V395.514H43.2L66.612,276.328l-36.087,69.9c-2.778,5.7-10.979,12.2-21.487,7.375a15.877,15.877,0,0,1-7.4-21.4l26.173-53.926c14.263-29.5,23.874-49.737,52.284-49.737h50.615c28.4,0,38.022,20.236,52.284,49.737l9.665,19.907,22.117-107.124-34.853,67.5c-9.355-18.07-18.372-30.389-35.093-33.832l15-30.921c20.191-41.74,33.8-70.4,74-70.4h71.614c13.561,0,28.88,5.769,32.892,9.186-11.919,9.559-21.363,31.285-21.363,31.285L319,173.517c15.123-30.043,32.581-50.11,64.008-50.11H454.61c40.214,0,52.861,28.658,73.043,70.4L565.7,270.444a22.632,22.632,0,0,1-10.464,30.3ZM269.65,113.973a54.831,54.831,0,1,0-54.831-54.831A54.831,54.831,0,0,0,269.65,113.973Zm149.148,0a54.831,54.831,0,1,0-54.836-54.831A54.829,54.829,0,0,0,418.8,113.973ZM105.388,221.87A38.729,38.729,0,1,0,66.656,183.14a38.725,38.725,0,0,0,38.732,38.729Z" transform="translate(-0.001 -4.311)"/>
</svg>
