<?xml version="1.0" encoding="utf-8"?>
<!-- Generator: Adobe Illustrator 28.2.0, SVG Export Plug-In . SVG Version: 6.00 Build 0)  -->
<svg version="1.1" id="Component_11_1" xmlns="http://www.w3.org/2000/svg" xmlns:xlink="http://www.w3.org/1999/xlink" x="0px"
	 y="0px" viewBox="0 0 254.6 211.7" style="enable-background:new 0 0 254.6 211.7;" xml:space="preserve">
<style type="text/css">
	.st0{fill:#136bad;}
	.st1{clip-path:url(#SVGID_00000150817889973475528340000009771882243746222998_);fill:#136bad;}
	.st2{fill:none;stroke:#136bad;stroke-width:1.0015;stroke-miterlimit:4.0063;}
</style>
<g id="Group_310">
	<path id="Path_391" class="st0" d="M8.3,24.4v48.3l28.4-48.3L8.3,24.4z"/>
	<g>
		<g>
			<defs>
				<rect id="SVGID_1_" x="7.3" y="-8" width="132.9" height="218.5"/>
			</defs>
			<clipPath id="SVGID_00000044150642129484815980000012989464936823217579_">
				<use xlink:href="#SVGID_1_"  style="overflow:visible;"/>
			</clipPath>
			<path id="Path_392" style="clip-path:url(#SVGID_00000044150642129484815980000012989464936823217579_);fill:#136bad;" d="
				M85.4,85.5c-13.7,0-25.5,4.6-31.8,11.2V68.4H130v-44H67.3l-59,100.4v12.1h48.6c1-6.4,6.4-12,16-12c12,0,18.8,6.9,18.8,20.4
				c0,13-5.6,22.4-18.1,22.4c-12.2,0-17.1-7.6-17.8-14.5H7.3c0.3,33.3,25.2,57.3,68.5,57.3c40.7,0,64.4-24.4,64.4-64.4
				C140.2,115,123.9,85.5,85.4,85.5"/>
			
				<rect id="Rectangle_512" x="-15.5" y="46.1" transform="matrix(0.5062 -0.8624 0.8624 0.5062 -24.9297 56.1525)" style="clip-path:url(#SVGID_00000044150642129484815980000012989464936823217579_);fill:#136bad;" width="104.2" height="7.5"/>
			<path id="Path_393" style="clip-path:url(#SVGID_00000044150642129484815980000012989464936823217579_);fill:#136bad;" d="
				M78.1,13.9c-1.3,2.2-4.2,3-6.4,1.7c-2.2-1.3-3-4.2-1.7-6.4c1.3-2.2,4.2-3,6.4-1.7C78.6,8.8,79.4,11.7,78.1,13.9L78.1,13.9"/>
		</g>
	</g>
</g>
<g id="Group_311" transform="matrix(0.914, 0.407, -0.407, 0.914, 182.485, 2.95)">
	<path id="Rectangle_514" class="st0" d="M60.1-3.8h0.8c5.5,0,10,4.5,10,10l0,184.7c0,5.5-4.5,10-10,10h-0.8c-5.5,0-10-4.5-10-10
		V6.2C50.1,0.7,54.6-3.8,60.1-3.8z"/>
	<g id="Ellipse_43" transform="translate(0 30.687)">
		<circle class="st0" cx="17.8" cy="15.4" r="19.2"/>
		<circle class="st2" cx="17.8" cy="15.4" r="18.7"/>
	</g>
	<g id="Ellipse_44" transform="translate(86.582 149.9)">
		<circle class="st0" cx="17.8" cy="15.4" r="19.2"/>
		<circle class="st2" cx="17.8" cy="15.4" r="18.7"/>
	</g>
</g>
</svg>
