<?xml version="1.0" encoding="UTF-8"?>
<svg id="Layer_1" data-name="Layer 1" xmlns="http://www.w3.org/2000/svg" version="1.1" viewBox="0 0 72.15 86.44">
  <defs>
    <style>
      .cls-1 {
        fill: #414042;
        stroke-width: 0px;
      }
    </style>
  </defs>
  <g>
    <path class="cls-1" d="M-164.78,37.25c-1.13-23.46-11.15-39.77-34.83-39.77-25.21,0-34.82,18.49-34.82,44.42s9.6,44.66,34.82,44.66c2.15,0,4.17-.14,6.09-.4l28.73-48.9ZM-211.25,41.9c0-12.13,1.2-22.21,11.65-22.21s11.65,10.08,11.65,22.21-1.2,22.45-11.65,22.45-11.65-9.96-11.65-22.45Z"/>
    <g>
      <polygon class="cls-1" points="-189.37 86.31 -186.32 88.1 -159.53 42.39 -162.57 40.6 -189.37 86.31"/>
      <circle class="cls-1" cx="-160.77" cy="54.91" r="2.22"/>
    </g>
  </g>
  <g>
    <path class="cls-1" d="M-168.83,599.53c-2.09-1.7-4.54-3.01-7.22-4.01v-.48c5.52-1.8,12.97-7.56,12.97-19.57,0-13.45-10.08-24.13-29.05-24.13s-29.89,9.96-30.49,28.09h22.93c.24-4.08,1.8-8.52,6.96-8.52,3.96,0,6.72,2.4,6.72,7.44,0,7.44-6.36,8.16-10.92,8.04h-4.08v19.09h4.2c8.88,0,12.49,2.88,12.49,8.88,0,4.68-2.76,7.92-7.44,7.92-6.24,0-9.12-3.84-8.88-10.08h-22.93c.46,19.86,12.52,28.64,30.01,29.46l24.76-42.14Z"/>
    <g>
      <polygon class="cls-1" points="-189.99 644.86 -186.95 646.65 -162.09 604.22 -165.13 602.43 -189.99 644.86"/>
      <circle class="cls-1" cx="-161.25" cy="611.65" r="2.22"/>
    </g>
  </g>
  <g>
    <g>
      <polygon class="cls-1" points="-205.73 268.93 -203.43 268.93 -181.27 231.22 -181.12 231.3 -181.12 181.17 -218.1 181.17 -218.1 203.26 -205.73 203.26 -205.73 268.93"/>
      <polygon class="cls-1" points="-181.46 268.93 -181.12 268.93 -181.12 268.35 -181.46 268.93"/>
    </g>
    <g>
      <polygon class="cls-1" points="-205.19 280.76 -202.14 282.55 -177.28 240.12 -180.33 238.33 -205.19 280.76"/>
      <circle class="cls-1" cx="-176.44" cy="247.55" r="2.22"/>
    </g>
  </g>
  <g>
    <path class="cls-1" d="M67.62,397c-4.53-6.53-11.91-9.86-20.8-9.86-7.44,0-13.81,3.12-17.05,8.04.12-14.29,2.4-21.85,10.2-21.85,5.16,0,7.32,2.76,8.4,7.92h21.85c-.96-13.57-9.12-26.89-28.93-26.89-22.93,0-32.41,14.53-32.41,45.62,0,24.73,6.12,43.33,30.91,44.37l27.82-47.35ZM41.06,405.39c5.88,0,9.36,3.6,9.36,9.48,0,6.24-3.6,9.48-9.24,9.48-6.12,0-9.73-3.36-9.73-9.73s4.2-9.24,9.6-9.24Z"/>
    <g>
      <polygon class="cls-1" points="44.96 444.68 48 446.47 72.86 404.04 69.82 402.25 44.96 444.68"/>
      <circle class="cls-1" cx="73.71" cy="411.46" r="2.22"/>
    </g>
  </g>
  <g>
    <g>
      <polygon class="cls-1" points="27.12 181.17 13.74 181.17 13.74 203.96 27.12 181.17"/>
      <path class="cls-1" d="M50.11,209.99c-6.48,0-12,2.16-15.01,5.28v-13.33h36.02v-20.77h-29.57l-27.82,47.35v5.71h22.93c.48-3,3-5.64,7.56-5.64,5.64,0,8.88,3.24,8.88,9.6s-2.64,10.56-8.52,10.56-8.04-3.6-8.4-6.84H13.26c.12,15.73,11.88,27.01,32.29,27.01,19.21,0,30.37-11.53,30.37-30.37,0-14.65-7.68-28.57-25.81-28.57Z"/>
    </g>
    <g>
      <polygon class="cls-1" points="15.97 208.31 19.01 210.1 43.88 167.67 40.83 165.89 15.97 208.31"/>
      <circle class="cls-1" cx="44.72" cy="175.1" r="2.22"/>
    </g>
  </g>
  <g>
    <path class="cls-1" d="M284.64,185.86c-2.05,0-4.01.14-5.89.41l-23.2,39.5c3.43,11.69,12.85,17.48,24.53,17.48,7.2,0,13.33-2.88,16.45-7.56,0,14.17-1.92,21.49-9.36,21.49-5.16,0-7.92-2.88-8.89-8.16h-21.97c.84,13.81,10.68,27.13,30.13,27.13,23.65,0,31.09-17.05,31.09-46.94,0-25.81-6.84-43.34-32.9-43.34ZM285.73,224.99c-6.12,0-9.48-3.72-9.48-9.24,0-6.12,3.6-9.48,9.24-9.48s9.24,3.12,9.24,9.6c0,5.64-3.48,9.12-9,9.12Z"/>
    <g>
      <polygon class="cls-1" points="253.89 212.88 256.94 214.67 281.8 172.25 278.75 170.46 253.89 212.88"/>
      <circle class="cls-1" cx="282.64" cy="179.67" r="2.22"/>
    </g>
  </g>
  <g>
    <g>
      <path class="cls-1" d="M38.9,74.27l23.56-40.1.21.12V0h-25.81L0,52.58v19.45h38.9v2.24ZM24.13,51.62l16.57-25.09v25.09h-16.57Z"/>
      <polygon class="cls-1" points="46.18 86.44 62.67 86.44 62.67 72.03 71.91 72.03 71.91 51.62 66.64 51.62 46.18 86.44"/>
    </g>
    <g>
      <polygon class="cls-1" points="41.18 79 44.23 80.79 69.09 38.36 66.04 36.58 41.18 79"/>
      <circle class="cls-1" cx="69.93" cy="45.79" r="2.22"/>
    </g>
  </g>
  <g>
    <path class="cls-1" d="M317.35,57.25c-1.98-5.28-5.78-9.38-11.16-12.23,6.36-3.48,10.69-9.6,10.69-18.37,0-12.49-9.73-23.53-30.97-23.53s-30.97,11.04-30.97,23.53c0,8.88,4.2,14.77,10.68,18.37-8.16,4.32-12.73,11.53-12.73,21.37,0,18.13,15.13,27.85,33.02,27.85,3.62,0,7.12-.4,10.41-1.19l21.04-35.81ZM285.91,21.49c4.68,0,7.92,3.24,7.92,8.88s-3.48,8.64-7.92,8.64-7.92-3-7.92-8.64,3.36-8.88,7.92-8.88ZM285.91,74.91c-6.48,0-10.2-4.32-10.2-9.84,0-6.12,4.2-9.96,10.2-9.96s10.08,3.96,10.08,9.96c0,5.52-3.6,9.84-10.08,9.84Z"/>
    <g>
      <polygon class="cls-1" points="296.99 100.56 300.04 102.35 324.9 59.93 321.85 58.14 296.99 100.56"/>
      <circle class="cls-1" cx="325.74" cy="67.35" r="2.22"/>
    </g>
  </g>
  <g>
    <path class="cls-1" d="M-191.84,425.32c14.05-9.72,29.17-24.73,29.17-42.98,0-14.41-8.28-26.29-29.17-26.29-.23,0-.47,0-.7.01l-18.4,31.32h10.45c-.24-7.8,2.76-11.53,7.2-11.53s6.84,3.12,6.84,8.16c0,13.69-18.73,28.69-36.62,42.74v17.65h61.23v-19.09h-30.01Z"/>
    <g>
      <polygon class="cls-1" points="-219.27 385.89 -216.22 387.68 -194.94 351.36 -197.99 349.57 -219.27 385.89"/>
      <circle class="cls-1" cx="-219.49" cy="376.75" r="2.22"/>
    </g>
  </g>
  <g>
    <g>
      <polygon class="cls-1" points="27.37 552.72 6.9 552.72 6.9 572.89 15.52 572.89 27.37 552.72"/>
      <polygon class="cls-1" points="49.33 552.72 37.49 572.89 41.12 572.89 12.07 640.36 36.2 640.36 65.01 570.13 65.01 552.72 49.33 552.72"/>
    </g>
    <g>
      <polygon class="cls-1" points="27.6 572.36 30.64 574.15 51.92 537.83 48.87 536.04 27.6 572.36"/>
      <circle class="cls-1" cx="27.38" cy="563.22" r="2.22"/>
    </g>
  </g>
</svg>