<?xml version="1.0" encoding="utf-8"?>
<!-- Generator: Adobe Illustrator 28.2.0, SVG Export Plug-In . SVG Version: 6.00 Build 0)  -->
<svg version="1.1" id="Layer_1" xmlns="http://www.w3.org/2000/svg" xmlns:xlink="http://www.w3.org/1999/xlink" x="0px" y="0px"
	 viewBox="0 0 228.4 170.6" style="enable-background:new 0 0 228.4 170.6;" xml:space="preserve">
<style type="text/css">
	.st0{fill:#62A7D1;}
</style>
<path id="Path_410" class="st0" d="M100.3,170.6H0.6v-70.5c-2.6-27,3.1-54.2,16.2-78C29.1,7.7,47.2-0.3,66.1,0.4L71.8,0v49.7
	C57.2,51.1,46,55.7,45,99.5h55.4v71.2L100.3,170.6L100.3,170.6z M228.4,170.6h-99.7v-70.5c-2.7-27,2.9-54.2,16.1-78
	C157,7.6,175.2-0.4,194.1,0.4l5.8-0.4v49.2l1.1,0.7c-14.6,1.3-26.2,6.2-27.1,49.7h54.5L228.4,170.6L228.4,170.6z"/>
</svg>
