<svg xmlns="http://www.w3.org/2000/svg" width="534.748" height="591" viewBox="0 0 534.748 591">
  <path id="Path_457" data-name="Path 457" d="M207.078,437.383,154.464,452.2l-14.821,52.614a26.184,26.184,0,0,1-49.4,0L75.419,452.2,23.3,437.383a25.937,25.937,0,0,1,0-49.4l51.379-16.3L89.5,319.062a26.184,26.184,0,0,1,49.4,0l14.821,52.614L206.337,386.5a25.937,25.937,0,0,1,.741,50.885ZM378.508,300.289l24.7-89.667,89.667-24.7a26.184,26.184,0,0,0,0-49.4l-89.667-24.7-24.7-89.667a25.937,25.937,0,0,0-49.4,0l-24.7,89.667-89.667,24.7a26.184,26.184,0,0,0,0,49.4l89.667,24.7,24.7,89.667a25.937,25.937,0,0,0,49.4,0ZM521.777,481.6l-43.228-11.116L466.2,427.255a21.49,21.49,0,0,0-41.252,0L412.6,470.483l-43.228,12.351a21.49,21.49,0,0,0,0,41.252l43.228,12.1,12.351,43.475a21.49,21.49,0,0,0,41.252,0l12.351-43.475,43.228-12.1a21.49,21.49,0,0,0,0-42.487Z" transform="translate(-5.271 -4.12)"/>
</svg>
