<svg xmlns="http://www.w3.org/2000/svg" width="150.667" height="251.111" viewBox="0 0 150.667 251.111">
  <g id="Group_338" data-name="Group 338" transform="translate(-11)">
    <path id="Path_410" data-name="Path 410" d="M71.222,70.311H21V12.556A12.434,12.434,0,0,1,33.556,0H58.667A12.434,12.434,0,0,1,71.222,12.556ZM31.044,60.267H61.178V12.556a2.372,2.372,0,0,0-2.511-2.511H33.556a2.372,2.372,0,0,0-2.511,2.511Z" transform="translate(40.222)" fill="#d6dbdc"/>
    <path id="Path_411" data-name="Path 411" d="M25.013,10.044A2.812,2.812,0,0,0,22,12.556V60.267h5.022V12.556a2.372,2.372,0,0,1,2.511-2.511ZM54.645,0h-4.52c7.031,0,12.053,5.524,12.053,12.556V70.311H67.2V12.556A12.434,12.434,0,0,0,54.645,0Z" transform="translate(44.245)" opacity="0.15"/>
    <path id="Path_412" data-name="Path 412" d="M71.222,50.178H21V22.556A12.434,12.434,0,0,1,33.556,10H58.667A12.434,12.434,0,0,1,71.222,22.556ZM31.044,40.133H61.178V22.556a2.372,2.372,0,0,0-2.511-2.511H33.556a2.372,2.372,0,0,0-2.511,2.511Z" transform="translate(40.222 40.222)" fill="#3e5066"/>
    <path id="Path_413" data-name="Path 413" d="M146.6,178.734H26.067A14.8,14.8,0,0,1,11,163.667V28.067A14.8,14.8,0,0,1,26.067,13H146.6a14.8,14.8,0,0,1,15.067,15.067v135.6A14.8,14.8,0,0,1,146.6,178.734Z" transform="translate(0 52.289)" fill="#3e5066"/>
    <path id="Path_414" data-name="Path 414" d="M61.111,28.067v135.6a14.8,14.8,0,0,1-15.067,15.067H36a14.8,14.8,0,0,0,15.067-15.067V28.067A14.8,14.8,0,0,0,36,13H46.044A14.8,14.8,0,0,1,61.111,28.067Z" transform="translate(100.556 52.289)" opacity="0.15"/>
    <path id="Path_415" data-name="Path 415" d="M36.111,178.734H26.067A14.8,14.8,0,0,1,11,163.667V28.067A14.8,14.8,0,0,1,26.067,13H36.111A14.8,14.8,0,0,0,21.044,28.067v135.6A14.8,14.8,0,0,0,36.111,178.734Z" transform="translate(0 52.289)" fill="#fff" opacity="0.1"/>
    <path id="Path_416" data-name="Path 416" d="M119.467,151.6h-90.4A14.8,14.8,0,0,1,14,136.534V96.356A14.8,14.8,0,0,1,29.067,81.289h90.4a14.8,14.8,0,0,1,15.067,15.067v40.178A14.8,14.8,0,0,1,119.467,151.6Zm-90.4-60.267a4.745,4.745,0,0,0-5.022,5.022v40.178a4.745,4.745,0,0,0,5.022,5.022h90.4a4.745,4.745,0,0,0,5.022-5.022V96.356a4.745,4.745,0,0,0-5.022-5.022Zm90.4-20.089h-90.4A14.8,14.8,0,0,1,14,56.178V31.067A14.8,14.8,0,0,1,29.067,16h90.4a14.8,14.8,0,0,1,15.067,15.067V56.178A14.8,14.8,0,0,1,119.467,71.245Zm-90.4-45.2a4.745,4.745,0,0,0-5.022,5.022V56.178A4.745,4.745,0,0,0,29.067,61.2h90.4a4.745,4.745,0,0,0,5.022-5.022V31.067a4.745,4.745,0,0,0-5.022-5.022Z" transform="translate(12.067 64.356)" opacity="0.4"/>
    <path id="Path_417" data-name="Path 417" d="M24.044,66.089h0A10.074,10.074,0,0,1,14,56.044V46H34.089V56.044A10.074,10.074,0,0,1,24.044,66.089Zm100.445,0h0a10.074,10.074,0,0,1-10.044-10.044V46h20.089V56.044A10.074,10.074,0,0,1,124.489,66.089Z" transform="translate(12.067 185.023)" fill="#3e5066"/>
    <path id="Path_418" data-name="Path 418" d="M24.044,66.089h0A10.074,10.074,0,0,1,14,56.044V46H34.089V56.044A10.074,10.074,0,0,1,24.044,66.089Zm100.445,0h0a10.074,10.074,0,0,1-10.044-10.044V46h20.089V56.044A10.074,10.074,0,0,1,124.489,66.089Z" transform="translate(12.067 185.023)" opacity="0.5"/>
    <path id="Path_419" data-name="Path 419" d="M19.022,114.422A4.745,4.745,0,0,1,14,109.4V94.333a4.745,4.745,0,0,1,5.022-5.022,4.745,4.745,0,0,1,5.022,5.022V109.4A4.745,4.745,0,0,1,19.022,114.422Zm0-70.311A4.745,4.745,0,0,1,14,39.089V24.022A4.745,4.745,0,0,1,19.022,19a4.745,4.745,0,0,1,5.022,5.022V39.089A4.745,4.745,0,0,1,19.022,44.111Z" transform="translate(12.067 76.422)" fill="#cbcbcb"/>
    <path id="Path_420" data-name="Path 420" d="M21.022,31A4.745,4.745,0,0,0,16,36.022V76.2a4.745,4.745,0,0,0,5.022,5.022h90.4a4.745,4.745,0,0,0,5.022-5.022V36.022A4.745,4.745,0,0,0,111.422,31Z" transform="translate(20.111 124.689)" fill="#fff" opacity="0.1"/>
    <path id="Path_421" data-name="Path 421" d="M116.445,88.311v40.178a5.4,5.4,0,0,1-5.022,5.022h-90.4A5.4,5.4,0,0,1,16,128.489v-5.022h85.378a5.4,5.4,0,0,0,5.022-5.022V83.289h5.022A5.4,5.4,0,0,1,116.445,88.311Zm0-65.289V48.133a5.4,5.4,0,0,1-5.022,5.022h-90.4A5.4,5.4,0,0,1,16,48.133V43.111h85.378a5.4,5.4,0,0,0,5.022-5.022V18h5.022A5.4,5.4,0,0,1,116.445,23.022Z" transform="translate(20.111 72.4)" opacity="0.1"/>
    <path id="Path_422" data-name="Path 422" d="M21.022,18A4.745,4.745,0,0,0,16,23.022V48.133a4.745,4.745,0,0,0,5.022,5.022h90.4a4.745,4.745,0,0,0,5.022-5.022V23.022A4.745,4.745,0,0,0,111.422,18Z" transform="translate(20.111 72.4)" fill="#fff" opacity="0.1"/>
    <circle id="Ellipse_46" data-name="Ellipse 46" cx="7.533" cy="7.533" r="7.533" transform="translate(78.8 100.445)" fill="#c4cacc"/>
    <rect id="Rectangle_568" data-name="Rectangle 568" width="20" height="5" transform="translate(76 0.112)" fill="#3e5066"/>
  </g>
</svg>
