<?xml version="1.0" encoding="UTF-8"?>
<svg id="Layer_1" data-name="Layer 1" xmlns="http://www.w3.org/2000/svg" version="1.1" viewBox="0 0 75.88 90.62">
  <defs>
    <style>
      .cls-1 {
        fill: #414042;
        stroke-width: 0px;
      }
    </style>
  </defs>
  <g>
    <path class="cls-1" d="M69.64,39.77C68.51,16.31,58.49,0,34.82,0,9.6,0,0,18.49,0,44.42s9.6,44.66,34.82,44.66c2.15,0,4.17-.14,6.09-.4l28.73-48.9ZM23.17,44.42c0-12.13,1.2-22.21,11.65-22.21s11.65,10.08,11.65,22.21-1.2,22.45-11.65,22.45-11.65-9.96-11.65-22.45Z"/>
    <g>
      <polygon class="cls-1" points="45.05 88.83 48.1 90.62 74.89 44.91 71.85 43.12 45.05 88.83"/>
      <circle class="cls-1" cx="73.66" cy="57.43" r="2.22"/>
    </g>
  </g>
  <g>
    <path class="cls-1" d="M65.59,602.05c-2.09-1.7-4.54-3.01-7.22-4.01v-.48c5.52-1.8,12.97-7.56,12.97-19.57,0-13.45-10.08-24.13-29.05-24.13s-29.89,9.96-30.49,28.09h22.93c.24-4.08,1.8-8.52,6.96-8.52,3.96,0,6.72,2.4,6.72,7.44,0,7.44-6.36,8.16-10.92,8.04h-4.08v19.09h4.2c8.88,0,12.49,2.88,12.49,8.88,0,4.68-2.76,7.92-7.44,7.92-6.24,0-9.12-3.84-8.88-10.08H10.83c.46,19.86,12.52,28.64,30.01,29.46l24.76-42.14Z"/>
    <g>
      <polygon class="cls-1" points="44.43 647.38 47.48 649.17 72.34 606.74 69.29 604.95 44.43 647.38"/>
      <circle class="cls-1" cx="73.18" cy="614.16" r="2.22"/>
    </g>
  </g>
  <g>
    <g>
      <polygon class="cls-1" points="28.69 271.45 31 271.45 53.16 233.74 53.3 233.82 53.3 183.69 16.33 183.69 16.33 205.78 28.69 205.78 28.69 271.45"/>
      <polygon class="cls-1" points="52.96 271.45 53.3 271.45 53.3 270.87 52.96 271.45"/>
    </g>
    <g>
      <polygon class="cls-1" points="29.23 283.28 32.28 285.07 57.14 242.64 54.09 240.85 29.23 283.28"/>
      <circle class="cls-1" cx="57.98" cy="250.06" r="2.22"/>
    </g>
  </g>
  <g>
    <path class="cls-1" d="M302.04,399.52c-4.53-6.53-11.91-9.86-20.8-9.86-7.44,0-13.81,3.12-17.05,8.04.12-14.29,2.4-21.85,10.2-21.85,5.16,0,7.32,2.76,8.4,7.92h21.85c-.96-13.57-9.12-26.89-28.93-26.89-22.93,0-32.41,14.53-32.41,45.62,0,24.73,6.12,43.33,30.91,44.37l27.82-47.35ZM275.48,407.91c5.88,0,9.36,3.6,9.36,9.48,0,6.24-3.6,9.48-9.24,9.48-6.12,0-9.73-3.36-9.73-9.73s4.2-9.24,9.6-9.24Z"/>
    <g>
      <polygon class="cls-1" points="279.38 447.2 282.43 448.99 307.29 406.56 304.24 404.77 279.38 447.2"/>
      <circle class="cls-1" cx="308.13" cy="413.98" r="2.22"/>
    </g>
  </g>
  <g>
    <g>
      <polygon class="cls-1" points="261.55 183.69 248.16 183.69 248.16 206.48 261.55 183.69"/>
      <path class="cls-1" d="M284.54,212.51c-6.48,0-12,2.16-15.01,5.28v-13.33h36.02v-20.77h-29.57l-27.82,47.35v5.71h22.93c.48-3,3-5.64,7.56-5.64,5.64,0,8.88,3.24,8.88,9.6s-2.64,10.56-8.52,10.56-8.04-3.6-8.4-6.84h-22.93c.12,15.73,11.88,27.01,32.29,27.01,19.21,0,30.37-11.53,30.37-30.37,0-14.65-7.68-28.57-25.81-28.57Z"/>
    </g>
    <g>
      <polygon class="cls-1" points="250.39 210.83 253.44 212.62 278.3 170.19 275.25 168.4 250.39 210.83"/>
      <circle class="cls-1" cx="279.14" cy="177.62" r="2.22"/>
    </g>
  </g>
  <g>
    <path class="cls-1" d="M519.07,188.37c-2.05,0-4.01.14-5.89.41l-23.2,39.5c3.43,11.69,12.85,17.48,24.53,17.48,7.2,0,13.33-2.88,16.45-7.56,0,14.17-1.92,21.49-9.36,21.49-5.16,0-7.92-2.88-8.89-8.16h-21.97c.84,13.81,10.68,27.13,30.13,27.13,23.65,0,31.09-17.05,31.09-46.94,0-25.81-6.84-43.34-32.9-43.34ZM520.15,227.51c-6.12,0-9.48-3.72-9.48-9.24,0-6.12,3.6-9.48,9.24-9.48s9.24,3.12,9.24,9.6c0,5.64-3.48,9.12-9,9.12Z"/>
    <g>
      <polygon class="cls-1" points="488.31 215.4 491.36 217.19 516.22 174.77 513.18 172.98 488.31 215.4"/>
      <circle class="cls-1" cx="517.06" cy="182.19" r="2.22"/>
    </g>
  </g>
  <g>
    <g>
      <path class="cls-1" d="M273.32,76.79l23.56-40.1.21.12V2.52h-25.81l-36.86,52.58v19.45h38.9v2.24ZM258.55,54.14l16.57-25.09v25.09h-16.57Z"/>
      <polygon class="cls-1" points="280.6 88.96 297.09 88.96 297.09 74.55 306.34 74.55 306.34 54.14 301.06 54.14 280.6 88.96"/>
    </g>
    <g>
      <polygon class="cls-1" points="275.61 81.52 278.65 83.31 303.51 40.88 300.47 39.09 275.61 81.52"/>
      <circle class="cls-1" cx="304.36" cy="48.31" r="2.22"/>
    </g>
  </g>
  <g>
    <path class="cls-1" d="M551.77,59.77c-1.98-5.28-5.78-9.38-11.16-12.23,6.36-3.48,10.69-9.6,10.69-18.37,0-12.49-9.73-23.53-30.97-23.53s-30.97,11.04-30.97,23.53c0,8.88,4.2,14.77,10.68,18.37-8.16,4.32-12.73,11.53-12.73,21.37,0,18.13,15.13,27.85,33.02,27.85,3.62,0,7.12-.4,10.41-1.19l21.04-35.81ZM520.33,24.01c4.68,0,7.92,3.24,7.92,8.88s-3.48,8.64-7.92,8.64-7.92-3-7.92-8.64,3.36-8.88,7.92-8.88ZM520.33,77.43c-6.48,0-10.2-4.32-10.2-9.84,0-6.12,4.2-9.96,10.2-9.96s10.08,3.96,10.08,9.96c0,5.52-3.6,9.84-10.08,9.84Z"/>
    <g>
      <polygon class="cls-1" points="531.41 103.08 534.46 104.87 559.32 62.45 556.27 60.66 531.41 103.08"/>
      <circle class="cls-1" cx="560.16" cy="69.87" r="2.22"/>
    </g>
  </g>
  <g>
    <path class="cls-1" d="M42.58,427.84c14.05-9.72,29.17-24.73,29.17-42.98,0-14.41-8.28-26.29-29.17-26.29-.23,0-.47,0-.7.01l-18.4,31.32h10.45c-.24-7.8,2.76-11.53,7.2-11.53s6.84,3.12,6.84,8.16c0,13.69-18.73,28.69-36.62,42.74v17.65h61.23v-19.09h-30.01Z"/>
    <g>
      <polygon class="cls-1" points="15.16 388.41 18.2 390.2 39.48 353.87 36.43 352.09 15.16 388.41"/>
      <circle class="cls-1" cx="14.94" cy="379.27" r="2.22"/>
    </g>
  </g>
  <g>
    <g>
      <polygon class="cls-1" points="261.79 555.24 241.33 555.24 241.33 575.41 249.94 575.41 261.79 555.24"/>
      <polygon class="cls-1" points="283.76 555.24 271.91 575.41 275.54 575.41 246.49 642.88 270.62 642.88 299.43 572.65 299.43 555.24 283.76 555.24"/>
    </g>
    <g>
      <polygon class="cls-1" points="262.02 574.88 265.07 576.67 286.34 540.35 283.3 538.56 262.02 574.88"/>
      <circle class="cls-1" cx="261.8" cy="565.74" r="2.22"/>
    </g>
  </g>
</svg>