<svg xmlns="http://www.w3.org/2000/svg" width="167" height="111.562" viewBox="0 0 167 111.562">
  <g id="Group_163" data-name="Group 163" transform="translate(-336.265 -611.477)">
    <path id="Path_206" data-name="Path 206" d="M340.5,611.477v15.936h85V611.477Z" transform="translate(77.767 0)" fill="#e94b35" fill-rule="evenodd"/>
    <path id="Path_207" data-name="Path 207" d="M340.5,612.27v15.938h85V612.27Z" transform="translate(77.767 15.143)" fill="#fff" fill-rule="evenodd"/>
    <path id="Path_208" data-name="Path 208" d="M336.266,676.814v15.937h167V676.814Zm83.5-63.75V629h83.5V613.063Z" transform="translate(0 30.287)" fill="#e94b35" fill-rule="evenodd"/>
    <path id="Path_209" data-name="Path 209" d="M340.5,613.857v15.937h85V613.857Z" transform="translate(77.767 45.431)" fill="#fff" fill-rule="evenodd"/>
    <path id="Path_210" data-name="Path 210" d="M336.266,614.651v15.938h167V614.651Z" transform="translate(0 60.574)" fill="#e94b35" fill-rule="evenodd"/>
    <path id="Path_211" data-name="Path 211" d="M336.266,615.444v15.938h167V615.444h-167Z" transform="translate(0 75.719)" fill="#fff" fill-rule="evenodd"/>
    <path id="Path_212" data-name="Path 212" d="M336.266,611.477v63.749h85V611.477Z" transform="translate(0 0)" fill="#227fbb" fill-rule="evenodd"/>
    <path id="Path_213" data-name="Path 213" d="M5.378,5.378,3.326,4.349,1.693,5.961l.345-2.269L0,2.637l2.264-.373L2.638,0,3.693,2.037l2.269-.344L4.349,3.326Z" transform="translate(370.953 648.496) rotate(9.142)" fill="#fff"/>
    <path id="Path_214" data-name="Path 214" d="M5.378,5.378,3.326,4.349,1.693,5.961l.345-2.269L0,2.637l2.264-.373L2.638,0,3.693,2.037l2.269-.344L4.349,3.326Z" transform="translate(380.725 648.497) rotate(9.142)" fill="#fff"/>
    <path id="Path_215" data-name="Path 215" d="M5.378,5.378,3.326,4.349,1.693,5.961l.345-2.269L0,2.637l2.264-.373L2.638,0,3.693,2.037l2.269-.344L4.349,3.326Z" transform="translate(361.631 648.495) rotate(9.142)" fill="#fff"/>
    <path id="Path_216" data-name="Path 216" d="M5.378,5.378,3.326,4.349,1.693,5.961l.345-2.269L0,2.637l2.264-.373L2.638,0,3.693,2.037l2.269-.344L4.349,3.326Z" transform="translate(351.675 648.497) rotate(9.142)" fill="#fff"/>
    <path id="Path_217" data-name="Path 217" d="M5.378,5.378,3.326,4.349,1.693,5.961l.345-2.269L0,2.637l2.264-.373L2.638,0,3.693,2.037l2.269-.344L4.349,3.326Z" transform="translate(341.721 648.496) rotate(9.142)" fill="#fff"/>
    <path id="Path_218" data-name="Path 218" d="M5.378,5.378,3.326,4.349,1.693,5.961l.345-2.269L0,2.637l2.264-.373L2.638,0,3.693,2.037l2.269-.344L4.349,3.326Z" transform="translate(410.04 648.496) rotate(9.142)" fill="#fff"/>
    <path id="Path_219" data-name="Path 219" d="M5.378,5.378,3.326,4.349,1.693,5.961l.345-2.269L0,2.637l2.264-.373L2.638,0,3.693,2.037l2.269-.344L4.349,3.326Z" transform="translate(400.268 648.496) rotate(9.142)" fill="#fff"/>
    <path id="Path_220" data-name="Path 220" d="M5.378,5.378,3.326,4.349,1.693,5.961l.345-2.269L0,2.637l2.264-.373L2.638,0,3.693,2.037l2.269-.344L4.349,3.326Z" transform="translate(390.497 648.496) rotate(9.142)" fill="#fff"/>
    <path id="Path_221" data-name="Path 221" d="M5.378,5.378,3.326,4.349,1.693,5.961l.345-2.269L0,2.637l2.264-.373L2.638,0,3.693,2.037l2.269-.344L4.349,3.326Z" transform="translate(366.068 641.042) rotate(9.142)" fill="#fff"/>
    <path id="Path_222" data-name="Path 222" d="M5.378,5.378,3.326,4.349,1.693,5.961l.345-2.269L0,2.637l2.264-.373L2.638,0,3.693,2.037l2.269-.344L4.349,3.326Z" transform="translate(375.84 641.041) rotate(9.142)" fill="#fff"/>
    <path id="Path_223" data-name="Path 223" d="M5.378,5.378,3.326,4.349,1.693,5.961l.345-2.269L0,2.637l2.264-.373L2.638,0,3.693,2.037l2.269-.344L4.349,3.326Z" transform="translate(356.653 641.042) rotate(9.142)" fill="#fff"/>
    <path id="Path_224" data-name="Path 224" d="M5.378,5.378,3.326,4.349,1.693,5.961l.345-2.269L0,2.637l2.264-.373L2.638,0,3.693,2.037l2.269-.344L4.349,3.326Z" transform="translate(346.698 641.042) rotate(9.142)" fill="#fff"/>
    <path id="Path_225" data-name="Path 225" d="M5.378,5.378,3.326,4.349,1.693,5.961l.345-2.269L0,2.637l2.264-.373L2.638,0,3.693,2.037l2.269-.344L4.349,3.326Z" transform="translate(405.155 641.042) rotate(9.142)" fill="#fff"/>
    <path id="Path_226" data-name="Path 226" d="M5.378,5.378,3.326,4.349,1.693,5.961l.345-2.269L0,2.637l2.264-.373L2.638,0,3.693,2.037l2.269-.344L4.349,3.326Z" transform="translate(395.383 641.041) rotate(9.142)" fill="#fff"/>
    <path id="Path_227" data-name="Path 227" d="M5.378,5.378,3.326,4.349,1.693,5.961l.345-2.269L0,2.637l2.264-.373L2.638,0,3.693,2.037l2.269-.344L4.349,3.326Z" transform="translate(385.612 641.042) rotate(9.142)" fill="#fff"/>
    <path id="Path_228" data-name="Path 228" d="M5.378,5.378,3.326,4.349,1.693,5.961l.345-2.269L0,2.637l2.264-.373L2.638,0,3.693,2.037l2.269-.344L4.349,3.326Z" transform="translate(370.953 633.587) rotate(9.142)" fill="#fff"/>
    <path id="Path_229" data-name="Path 229" d="M5.378,5.378,3.326,4.349,1.693,5.961l.345-2.269L0,2.637l2.264-.373L2.638,0,3.693,2.037l2.269-.344L4.349,3.326Z" transform="translate(380.725 633.588) rotate(9.142)" fill="#fff"/>
    <path id="Path_230" data-name="Path 230" d="M5.378,5.378,3.326,4.349,1.693,5.961l.345-2.269L0,2.637l2.264-.373L2.638,0,3.693,2.037l2.269-.344L4.349,3.326Z" transform="translate(361.631 633.588) rotate(9.142)" fill="#fff"/>
    <path id="Path_231" data-name="Path 231" d="M5.378,5.378,3.326,4.349,1.693,5.961l.345-2.269L0,2.637l2.264-.373L2.638,0,3.693,2.037l2.269-.344L4.349,3.326Z" transform="translate(351.675 633.588) rotate(9.142)" fill="#fff"/>
    <path id="Path_232" data-name="Path 232" d="M5.378,5.378,3.326,4.349,1.693,5.961l.345-2.269L0,2.637l2.264-.373L2.638,0,3.693,2.037l2.269-.344L4.349,3.326Z" transform="translate(410.041 633.588) rotate(9.142)" fill="#fff"/>
    <path id="Path_233" data-name="Path 233" d="M5.378,5.378,3.326,4.349,1.693,5.961l.345-2.269L0,2.637l2.264-.373L2.638,0,3.693,2.037l2.269-.344L4.349,3.326Z" transform="translate(400.268 633.587) rotate(9.142)" fill="#fff"/>
    <path id="Path_234" data-name="Path 234" d="M5.378,5.378,3.326,4.349,1.693,5.961l.345-2.269L0,2.637l2.264-.373L2.638,0,3.693,2.037l2.269-.344L4.349,3.326Z" transform="translate(390.497 633.588) rotate(9.142)" fill="#fff"/>
    <path id="Path_235" data-name="Path 235" d="M5.378,5.378,3.326,4.349,1.693,5.961l.345-2.269L0,2.637l2.264-.373L2.638,0,3.693,2.037l2.269-.344L4.349,3.326Z" transform="translate(370.953 633.587) rotate(9.142)" fill="#fff"/>
    <path id="Path_236" data-name="Path 236" d="M5.378,5.378,3.326,4.349,1.693,5.961l.345-2.269L0,2.637l2.264-.373L2.638,0,3.693,2.037l2.269-.344L4.349,3.326Z" transform="translate(380.725 633.588) rotate(9.142)" fill="#fff"/>
    <path id="Path_237" data-name="Path 237" d="M5.378,5.378,3.326,4.349,1.693,5.961l.345-2.269L0,2.637l2.264-.373L2.638,0,3.693,2.037l2.269-.344L4.349,3.326Z" transform="translate(361.631 633.588) rotate(9.142)" fill="#fff"/>
    <path id="Path_238" data-name="Path 238" d="M5.378,5.378,3.326,4.349,1.693,5.961l.345-2.269L0,2.637l2.264-.373L2.638,0,3.693,2.037l2.269-.344L4.349,3.326Z" transform="translate(351.675 633.588) rotate(9.142)" fill="#fff"/>
    <path id="Path_239" data-name="Path 239" d="M5.378,5.378,3.326,4.349,1.693,5.961l.345-2.269L0,2.637l2.264-.373L2.638,0,3.693,2.037l2.269-.344L4.349,3.326Z" transform="translate(341.721 633.588) rotate(9.142)" fill="#fff"/>
    <path id="Path_240" data-name="Path 240" d="M5.378,5.378,3.326,4.349,1.693,5.961l.345-2.269L0,2.637l2.264-.373L2.638,0,3.693,2.037l2.269-.344L4.349,3.326Z" transform="translate(410.041 633.588) rotate(9.142)" fill="#fff"/>
    <path id="Path_241" data-name="Path 241" d="M5.378,5.378,3.326,4.349,1.693,5.961l.345-2.269L0,2.637l2.264-.373L2.638,0,3.693,2.037l2.269-.344L4.349,3.326Z" transform="translate(400.268 633.587) rotate(9.142)" fill="#fff"/>
    <path id="Path_242" data-name="Path 242" d="M5.378,5.378,3.326,4.349,1.693,5.961l.345-2.269L0,2.637l2.264-.373L2.638,0,3.693,2.037l2.269-.344L4.349,3.326Z" transform="translate(390.497 633.588) rotate(9.142)" fill="#fff"/>
    <path id="Path_243" data-name="Path 243" d="M5.378,5.378,3.326,4.349,1.693,5.961l.345-2.269L0,2.637l2.264-.373L2.638,0,3.693,2.037l2.269-.344L4.349,3.326Z" transform="translate(366.067 626.133) rotate(9.142)" fill="#fff"/>
    <path id="Path_244" data-name="Path 244" d="M5.378,5.378,3.326,4.349,1.693,5.961l.345-2.269L0,2.637l2.264-.373L2.638,0,3.693,2.037l2.269-.344L4.349,3.326Z" transform="translate(375.84 626.133) rotate(9.142)" fill="#fff"/>
    <path id="Path_245" data-name="Path 245" d="M5.378,5.378,3.326,4.349,1.693,5.961l.345-2.269L0,2.637l2.264-.373L2.638,0,3.693,2.037l2.269-.344L4.349,3.326Z" transform="translate(356.653 626.133) rotate(9.142)" fill="#fff"/>
    <path id="Path_246" data-name="Path 246" d="M5.378,5.378,3.326,4.349,1.693,5.961l.345-2.269L0,2.637l2.264-.373L2.638,0,3.693,2.037l2.269-.344L4.349,3.326Z" transform="translate(346.699 626.133) rotate(9.142)" fill="#fff"/>
    <path id="Path_247" data-name="Path 247" d="M5.378,5.378,3.326,4.349,1.693,5.961l.345-2.269L0,2.637l2.264-.373L2.638,0,3.693,2.037l2.269-.344L4.349,3.326Z" transform="translate(405.156 626.131) rotate(9.142)" fill="#fff"/>
    <path id="Path_248" data-name="Path 248" d="M5.378,5.378,3.326,4.349,1.693,5.961l.345-2.269L0,2.637l2.264-.373L2.638,0,3.693,2.037l2.269-.344L4.349,3.326Z" transform="translate(395.383 626.133) rotate(9.142)" fill="#fff"/>
    <path id="Path_249" data-name="Path 249" d="M5.378,5.378,3.326,4.349,1.693,5.961l.345-2.269L0,2.637l2.264-.373L2.638,0,3.693,2.037l2.269-.344L4.349,3.326Z" transform="translate(385.611 626.131) rotate(9.142)" fill="#fff"/>
    <path id="Path_250" data-name="Path 250" d="M5.378,5.378,3.326,4.349,1.693,5.961l.345-2.269L0,2.637l2.264-.373L2.638,0,3.693,2.037l2.269-.344L4.349,3.326Z" transform="translate(370.953 663.404) rotate(9.142)" fill="#fff"/>
    <path id="Path_251" data-name="Path 251" d="M5.378,5.378,3.326,4.349,1.693,5.961l.345-2.269L0,2.637l2.264-.373L2.638,0,3.693,2.037l2.269-.344L4.349,3.326Z" transform="translate(380.726 663.406) rotate(9.142)" fill="#fff"/>
    <path id="Path_252" data-name="Path 252" d="M5.378,5.378,3.326,4.349,1.693,5.961l.345-2.269L0,2.637l2.264-.373L2.638,0,3.693,2.037l2.269-.344L4.349,3.326Z" transform="translate(361.631 663.406) rotate(9.142)" fill="#fff"/>
    <path id="Path_253" data-name="Path 253" d="M5.378,5.378,3.326,4.349,1.693,5.961l.345-2.269L0,2.637l2.264-.373L2.638,0,3.693,2.037l2.269-.344L4.349,3.326Z" transform="translate(351.676 663.406) rotate(9.142)" fill="#fff"/>
    <path id="Path_254" data-name="Path 254" d="M5.378,5.378,3.326,4.349,1.693,5.961l.345-2.269L0,2.637l2.264-.373L2.638,0,3.693,2.037l2.269-.344L4.349,3.326Z" transform="translate(341.721 663.404) rotate(9.142)" fill="#fff"/>
    <path id="Path_255" data-name="Path 255" d="M5.378,5.378,3.326,4.349,1.693,5.961l.345-2.269L0,2.637l2.264-.373L2.638,0,3.693,2.037l2.269-.344L4.349,3.326Z" transform="translate(410.041 663.404) rotate(9.142)" fill="#fff"/>
    <path id="Path_256" data-name="Path 256" d="M5.378,5.378,3.326,4.349,1.693,5.961l.345-2.269L0,2.637l2.264-.373L2.638,0,3.693,2.037l2.269-.344L4.349,3.326Z" transform="translate(400.269 663.404) rotate(9.142)" fill="#fff"/>
    <path id="Path_257" data-name="Path 257" d="M5.378,5.378,3.326,4.349,1.693,5.961l.345-2.269L0,2.637l2.264-.373L2.638,0,3.693,2.037l2.269-.344L4.349,3.326Z" transform="translate(390.497 663.404) rotate(9.142)" fill="#fff"/>
    <path id="Path_258" data-name="Path 258" d="M5.378,5.378,3.326,4.349,1.693,5.961l.345-2.269L0,2.637l2.264-.373L2.638,0,3.693,2.037l2.269-.344L4.349,3.326Z" transform="translate(366.067 655.951) rotate(9.142)" fill="#fff"/>
    <path id="Path_259" data-name="Path 259" d="M5.378,5.378,3.326,4.349,1.693,5.961l.345-2.269L0,2.637l2.264-.373L2.638,0,3.693,2.037l2.269-.344L4.349,3.326Z" transform="translate(375.84 655.95) rotate(9.142)" fill="#fff"/>
    <path id="Path_260" data-name="Path 260" d="M5.378,5.378,3.326,4.349,1.693,5.961l.345-2.269L0,2.637l2.264-.373L2.638,0,3.693,2.037l2.269-.344L4.349,3.326Z" transform="translate(356.654 655.951) rotate(9.142)" fill="#fff"/>
    <path id="Path_261" data-name="Path 261" d="M5.378,5.378,3.326,4.349,1.693,5.961l.345-2.269L0,2.637l2.264-.373L2.638,0,3.693,2.037l2.269-.344L4.349,3.326Z" transform="translate(346.698 655.951) rotate(9.142)" fill="#fff"/>
    <path id="Path_262" data-name="Path 262" d="M5.378,5.378,3.326,4.349,1.693,5.961l.345-2.269L0,2.637l2.264-.373L2.638,0,3.693,2.037l2.269-.344L4.349,3.326Z" transform="translate(405.156 655.95) rotate(9.142)" fill="#fff"/>
    <path id="Path_263" data-name="Path 263" d="M5.378,5.378,3.326,4.349,1.693,5.961l.345-2.269L0,2.637l2.264-.373L2.638,0,3.693,2.037l2.269-.344L4.349,3.326Z" transform="translate(395.383 655.951) rotate(9.142)" fill="#fff"/>
    <path id="Path_264" data-name="Path 264" d="M5.378,5.378,3.326,4.349,1.693,5.961l.345-2.269L0,2.637l2.264-.373L2.638,0,3.693,2.037l2.269-.344L4.349,3.326Z" transform="translate(385.612 655.951) rotate(9.142)" fill="#fff"/>
    <path id="Path_265" data-name="Path 265" d="M5.378,5.378,3.326,4.349,1.693,5.961l.345-2.269L0,2.637l2.264-.373L2.638,0,3.693,2.037l2.269-.344L4.349,3.326Z" transform="translate(370.953 618.678) rotate(9.142)" fill="#fff"/>
    <path id="Path_266" data-name="Path 266" d="M5.378,5.378,3.326,4.349,1.693,5.961l.345-2.269L0,2.637l2.264-.373L2.638,0,3.693,2.037l2.269-.344L4.349,3.326Z" transform="translate(380.726 618.678) rotate(9.142)" fill="#fff"/>
    <path id="Path_267" data-name="Path 267" d="M5.378,5.378,3.326,4.349,1.693,5.961l.345-2.269L0,2.637l2.264-.373L2.638,0,3.693,2.037l2.269-.344L4.349,3.326Z" transform="translate(361.631 618.678) rotate(9.142)" fill="#fff"/>
    <path id="Path_268" data-name="Path 268" d="M5.378,5.378,3.326,4.349,1.693,5.961l.345-2.269L0,2.637l2.264-.373L2.638,0,3.693,2.037l2.269-.344L4.349,3.326Z" transform="translate(351.675 618.678) rotate(9.142)" fill="#fff"/>
    <path id="Path_269" data-name="Path 269" d="M5.378,5.378,3.326,4.349,1.693,5.961l.345-2.269L0,2.637l2.264-.373L2.638,0,3.693,2.037l2.269-.344L4.349,3.326Z" transform="translate(341.721 618.678) rotate(9.142)" fill="#fff"/>
    <path id="Path_270" data-name="Path 270" d="M5.378,5.378,3.326,4.349,1.693,5.961l.345-2.269L0,2.637l2.264-.373L2.638,0,3.693,2.037l2.269-.344L4.349,3.326Z" transform="translate(410.04 618.678) rotate(9.142)" fill="#fff"/>
    <path id="Path_271" data-name="Path 271" d="M5.378,5.378,3.326,4.349,1.693,5.961l.345-2.269L0,2.637l2.264-.373L2.638,0,3.693,2.037l2.269-.344L4.349,3.326Z" transform="translate(400.268 618.678) rotate(9.142)" fill="#fff"/>
    <path id="Path_272" data-name="Path 272" d="M5.378,5.378,3.326,4.349,1.693,5.961l.345-2.269L0,2.637l2.264-.373L2.638,0,3.693,2.037l2.269-.344L4.349,3.326Z" transform="translate(390.497 618.677) rotate(9.142)" fill="#fff"/>
  </g>
</svg>
