<svg id="Group_162" data-name="Group 162" xmlns="http://www.w3.org/2000/svg" width="167" height="113.333" viewBox="0 0 167 113.333">
  <path id="Path_196" data-name="Path 196" d="M0,0H167V113.333H0Z" fill="#fff" fill-rule="evenodd"/>
  <path id="Path_197" data-name="Path 197" d="M29,0H96.292V42.5H29Z" transform="translate(70.708)" fill="#e94b35" fill-rule="evenodd"/>
  <path id="Path_198" data-name="Path 198" d="M0,0H66.1V42.5H0ZM100.9,70.833H167v42.5H100.9Z" fill="#227fbb" fill-rule="evenodd"/>
  <path id="Path_199" data-name="Path 199" d="M0,20H67.292V62.5H0Z" transform="translate(0 50.833)" fill="#e94b35" fill-rule="evenodd"/>
  <g id="Group_161" data-name="Group 161" transform="translate(66.009 39.114)">
    <path id="Path_200" data-name="Path 200" d="M24.789,13.769a15.495,15.495,0,1,0,20.662,0,2.215,2.215,0,1,0-2.954,3.3,11.068,11.068,0,1,1-14.755,0,2.215,2.215,0,1,0-2.954-3.3Z" transform="translate(-17.624 -5.552)" fill="#1fce6d"/>
    <path id="Path_201" data-name="Path 201" d="M24.218,14.479c-.931.577-1.147.772-.637,1.7-.12.085-.967.344-1.176.418a13.8,13.8,0,0,0-2.221.981,3.714,3.714,0,0,0-.875.744l1.93-.152a3.991,3.991,0,0,1-.28.425c-.329.478-.531.857-.822,1.353a13.346,13.346,0,0,1,1.668-1.024c1.381-.7,3.871-.715,4.887-1.941.262-.308.106-.5-.113-1a15.525,15.525,0,0,1,1.955-.63c2.214-.5,3.74.092,4.813-.17.333-.085.659-.269.684-.62l-.163-1.119,3.6,0c0,.634-.6,1.445.514,1.735,1.009.266,3.053-.312,4.817.177l1.955.63a4.894,4.894,0,0,1-.191.471.417.417,0,0,0,.071.51,3.059,3.059,0,0,0,.747.6,8.212,8.212,0,0,0,2.029.7,8.408,8.408,0,0,1,3.79,1.665,18.561,18.561,0,0,0-1.094-1.771l1.923.152a4.892,4.892,0,0,0-1.93-1.264L47.756,16.2c.213-.407.39-.744.177-1.084a8.7,8.7,0,0,0-2.773-1.59,24.754,24.754,0,0,0-2.564-.545q-1.212-.17-2.433-.251c-.117-.124.22-.758-.294-1.2a2.373,2.373,0,0,0-1.186-.368,41.759,41.759,0,0,0-6.028,0,1.739,1.739,0,0,0-1.186.372c-.365.34-.411.549-.379,1.19A12.672,12.672,0,0,0,24.218,14.479Z" transform="translate(-18.427 -11.044)" fill="#227fbb"/>
    <path id="Path_202" data-name="Path 202" d="M28.481,22.608a11.347,11.347,0,0,0-2.55,1.087c-.354-.531-.839-1.321-1.183-1.781a2.5,2.5,0,0,0-.8-.68c-.528-.248-.719-.174-1.052.117l-.237-.45a13.721,13.721,0,0,0-1.495-1.884l-.475-.556c-.064-.071-.085-.127-.17-.17A17.1,17.1,0,0,1,21,20.327c-.287-.159-.556-.319-.857-.45A3.266,3.266,0,0,0,19.06,19.7l.344.308A4.246,4.246,0,0,1,20.618,22a6.021,6.021,0,0,0,1.495,2.355,2.786,2.786,0,0,0,.733.545c.708.255.673-.011.935-.142a11.084,11.084,0,0,0,1.523,2.09,2.834,2.834,0,0,0,2.713.684,3.607,3.607,0,0,0,1.031-.414c1.257-.726.655-1.289.506-1.866.407-.128,2.008-.609,2.585-.719a30.694,30.694,0,0,1,8.181-.071,29.005,29.005,0,0,1,2.869.815,1.93,1.93,0,0,0-.212,1.038c.039.411.39.623.7.8a3.6,3.6,0,0,0,2.334.467,2.772,2.772,0,0,0,1.764-1.14,10.323,10.323,0,0,0,1.169-1.693,1.166,1.166,0,0,0,.319.212,1.626,1.626,0,0,0,.63-.074,2.213,2.213,0,0,0,.719-.556,5.583,5.583,0,0,0,1.495-2.373A4.343,4.343,0,0,1,53.655,19.7a3.419,3.419,0,0,0-1.934.63l.213-1.045c.067-.287.227-.715.259-.992-.46.492-.871,1.006-1.275,1.459-.2.259-.411.471-.6.747-.411.627-.333.648-.485.85-1.427-.79-2.068,1.14-3.035,2.327a15.965,15.965,0,0,0-5.447-1.707c-.475-.05-.892-.117-1.282-.159a31.932,31.932,0,0,0-8.192.1,29.248,29.248,0,0,0-3.4.7Z" transform="translate(-19.06 7.375)" fill="#e94b35"/>
    <path id="Path_203" data-name="Path 203" d="M29.16,20.94V13.226H21.22l1.973,2.083.018,5.631Z" transform="translate(-13.57 -5.498)" fill="#227fbb"/>
    <path id="Path_204" data-name="Path 204" d="M30.968,20.94V13.226h8.093L37,15.44v5.5Zm-3.18,3.184H21.781l-.021,4.856a3.063,3.063,0,0,0,3.248,2.84c.953.007,1.275-.007,2.777-.018V24.124Z" transform="translate(-12.197 -5.498)" fill="#e94b35"/>
    <path id="Path_205" data-name="Path 205" d="M24.36,16.3h6.049l-.021,4.856A3.006,3.006,0,0,1,27.14,24l-2.777-.018V16.3Z" transform="translate(-5.589 2.323)" fill="#227fbb"/>
  </g>
</svg>
