<?xml version="1.0" encoding="utf-8"?>
<!-- Generator: Adobe Illustrator 28.0.0, SVG Export Plug-In . SVG Version: 6.00 Build 0)  -->
<svg version="1.1" id="left-arrow" xmlns="http://www.w3.org/2000/svg" xmlns:xlink="http://www.w3.org/1999/xlink" x="0px" y="0px"
	 viewBox="0 0 32 32" style="enable-background:new 0 0 32 32;" xml:space="preserve">
<path d="M5.1,18h17.2l-6.6,6.6c-0.7,0.8-0.6,2.1,0.2,2.8c0.7,0.6,1.9,0.6,2.6,0l10-10c0.1-0.1,0.2-0.2,0.2-0.3c0,0,0.1-0.1,0.1-0.1
	l0.1-0.2l0.1-0.2c0-0.1,0-0.1,0-0.2c0.1-0.3,0.1-0.5,0-0.8c0-0.1,0-0.1,0-0.2l-0.1-0.2c0-0.1-0.1-0.1-0.1-0.2c0-0.1-0.1-0.1-0.1-0.1
	c-0.1-0.1-0.2-0.2-0.2-0.3l-10-10c-0.8-0.7-2.1-0.6-2.8,0.2c-0.6,0.7-0.6,1.9,0,2.6l6.6,6.6H5.1c-1.1,0-2,0.9-2,2S3.9,18,5.1,18z"/>
</svg>
